<svg width="969.0250244140625px" height="122.021240234375px" xmlns="http://www.w3.org/2000/svg" viewBox="-234.51251220703125 13.9893798828125 969.0250244140625 122.021240234375" style="background: none;" preserveAspectRatio="xMidYMid"><defs><linearGradient id="editing-glowing-gradient" x1="0.0904239778555041" x2="0.909576022144496" y1="0.21321178182447698" y2="0.786788218175523"><stop offset="0" stop-color="#31ff00"></stop><stop offset="1" stop-color="#313d3d"></stop></linearGradient><filter id="editing-glowing" x="-100%" y="-100%" width="300%" height="300%"><feGaussianBlur in="SourceGraphic" result="blur" stdDeviation="10"></feGaussianBlur><feMerge><feMergeNode in="blur"></feMergeNode><feMergeNode in="SourceGraphic"></feMergeNode></feMerge></filter></defs><g filter="url(#editing-glowing)"><g transform="translate(-98.02250850200653, 104.78218841552734)"><path d="M6.53 0L-0.83 0L10.75-42.24L24.13-42.24L27.07-18.11L38.98-42.24L50.18-42.24L51.33-10.62L51.33-10.62Q51.58-4.35 54.66-2.43L54.66-2.43L54.66-2.43Q53.95-1.15 51.90 0.06L51.90 0.06L51.90 0.06Q49.86 1.28 47.14 1.28L47.14 1.28L47.14 1.28Q44.42 1.28 42.82 0.51L42.82 0.51L42.82 0.51Q41.22-0.26 40.32-1.54L40.32-1.54L40.32-1.54Q38.72-3.84 38.72-8.26L38.72-8.26L38.72-28.03L26.11 0L18.18 0L13.70-28.74L6.53 0ZM60.19-1.92L60.19-1.92L60.19-1.92Q58.69-3.58 58.02-6.21L58.02-6.21L58.02-6.21Q57.34-8.83 57.34-13.12L57.34-13.12L57.34-13.12Q57.34-17.41 58.82-21.31L58.82-21.31L58.82-21.31Q60.29-25.22 62.98-28.03L62.98-28.03L62.98-28.03Q68.48-33.92 77.57-33.92L77.57-33.92L77.57-33.92Q80.83-33.92 83.20-32.83L83.20-32.83L94.14-33.92L89.41-8.96L89.41-8.96Q89.22-8.19 89.22-6.78L89.22-6.78L89.22-6.78Q89.22-5.38 90.08-4.48L90.08-4.48L90.08-4.48Q90.94-3.58 92.22-3.46L92.22-3.46L92.22-3.46Q91.58-1.28 89.25 0L89.25 0L89.25 0Q86.91 1.28 84.29 1.28L84.29 1.28L84.29 1.28Q81.66 1.28 79.90 0.29L79.90 0.29L79.90 0.29Q78.14-0.70 77.63-2.37L77.63-2.37L77.63-2.37Q76.61-0.77 74.43 0.26L74.43 0.26L74.43 0.26Q72.26 1.28 69.34 1.28L69.34 1.28L69.34 1.28Q66.43 1.28 64.06 0.51L64.06 0.51L64.06 0.51Q61.70-0.26 60.19-1.92ZM73.70-27.90L73.70-27.90L73.70-27.90Q72.96-26.75 72.32-24.80L72.32-24.80L72.32-24.80Q71.68-22.85 70.62-17.63L70.62-17.63L70.62-17.63Q69.57-12.42 69.57-8.70L69.57-8.70L69.57-8.70Q69.57-4.99 70.14-3.90L70.14-3.90L70.14-3.90Q70.72-2.82 71.74-2.82L71.74-2.82L71.74-2.82Q73.79-2.82 75.30-4.77L75.30-4.77L75.30-4.77Q76.80-6.72 77.38-10.18L77.38-10.18L80.77-28.93L80.77-28.93Q79.42-30.08 77.86-30.08L77.86-30.08L77.86-30.08Q76.29-30.08 75.36-29.57L75.36-29.57L75.36-29.57Q74.43-29.06 73.70-27.90ZM128.77-26.62L128.77-26.62L128.77-26.62Q128.77-23.94 126.53-22.27L126.53-22.27L126.53-22.27Q124.29-20.61 120.64-20.61L120.64-20.61L120.64-20.61Q119.10-20.61 118.21-21.06L118.21-21.06L118.21-21.06Q118.91-22.72 119.14-24.80L119.14-24.80L119.14-24.80Q119.36-26.88 119.36-27.46L119.36-27.46L119.36-27.46Q119.36-30.14 117.50-30.14L117.50-30.14L117.50-30.14Q116.22-30.14 114.78-28.54L114.78-28.54L114.78-28.54Q113.34-26.94 112.13-24.45L112.13-24.45L112.13-24.45Q109.44-18.69 109.44-12.86L109.44-12.86L109.44-12.86Q109.44-9.66 110.66-8.22L110.66-8.22L110.66-8.22Q111.87-6.78 114.56-6.78L114.56-6.78L114.56-6.78Q118.27-6.78 121.22-9.86L121.22-9.86L121.22-9.86Q122.05-10.82 122.50-11.90L122.50-11.90L122.50-11.90Q124.93-10.62 124.93-7.10L124.93-7.10L124.93-7.10Q124.93-3.52 120.96-1.15L120.96-1.15L120.96-1.15Q116.86 1.28 110.34 1.28L110.34 1.28L110.34 1.28Q97.34 1.28 97.34-12.48L97.34-12.48L97.34-12.48Q97.34-22.53 103.04-28.29L103.04-28.29L103.04-28.29Q108.54-33.92 118.66-33.92L118.66-33.92L118.66-33.92Q128.77-33.92 128.77-26.62ZM142.82 0.64L142.82 0.64L142.82 0.64Q139.78 0 138.21-0.29L138.21-0.29L138.21-0.29Q136.64-0.58 134.82-0.58L134.82-0.58L134.82-0.58Q132.99-0.58 131.20 0.06L131.20 0.06L131.20 0.06Q130.24-0.51 129.63-1.66L129.63-1.66L129.63-1.66Q129.02-2.82 129.02-4.61L129.02-4.61L129.02-4.61Q129.02-8.38 132.86-11.26L132.86-11.26L149.12-22.98L149.12-22.98Q144.58-24.26 140.45-24.26L140.45-24.26L140.45-24.26Q136.32-24.26 134.85-21.44L134.85-21.44L134.85-21.44Q132.67-24 132.67-28.03L132.67-28.03L132.67-28.03Q132.67-30.72 134.62-32.48L134.62-32.48L134.62-32.48Q136.58-34.24 140.67-34.24L140.67-34.24L140.67-34.24Q142.98-34.24 145.06-33.95L145.06-33.95L145.06-33.95Q147.14-33.66 148.99-33.41L148.99-33.41L152.45-32.90L152.45-32.90Q154.11-32.64 155.81-32.64L155.81-32.64L155.81-32.64Q157.50-32.64 158.78-33.34L158.78-33.34L158.78-33.34Q160.45-31.81 160.45-29.70L160.45-29.70L160.45-29.70Q160.45-26.37 156.35-22.91L156.35-22.91L140.16-10.82L140.16-10.82Q145.15-9.34 147.71-9.34L147.71-9.34L147.71-9.34Q153.09-9.34 155.39-11.90L155.39-11.90L155.39-11.90Q157.18-9.86 157.18-6.30L157.18-6.30L157.18-6.30Q157.18-2.75 154.88-0.74L154.88-0.74L154.88-0.74Q152.58 1.28 148.42 1.28L148.42 1.28L148.42 1.28Q145.86 1.28 142.82 0.64ZM188.67-10.82L188.67-10.82L188.67-10.82Q190.27-9.73 190.27-7.33L190.27-7.33L190.27-7.33Q190.27-4.93 189.06-3.39L189.06-3.39L189.06-3.39Q187.84-1.86 185.86-0.83L185.86-0.83L185.86-0.83Q181.76 1.28 177.34 1.28L177.34 1.28L177.34 1.28Q172.93 1.28 170.34 0.32L170.34 0.32L170.34 0.32Q167.74-0.64 166.02-2.43L166.02-2.43L166.02-2.43Q162.62-5.82 162.62-12.03L162.62-12.03L162.62-12.03Q162.62-21.70 167.87-27.58L167.87-27.58L167.87-27.58Q173.50-33.92 183.30-33.92L183.30-33.92L183.30-33.92Q189.38-33.92 192.38-31.36L192.38-31.36L192.38-31.36Q194.62-29.44 194.62-26.30L194.62-26.30L194.62-26.30Q194.62-15.04 175.17-15.04L175.17-15.04L175.17-15.04Q174.91-13.38 174.91-11.97L174.91-11.97L174.91-11.97Q174.91-9.02 176.22-7.90L176.22-7.90L176.22-7.90Q177.54-6.78 179.97-6.78L179.97-6.78L179.97-6.78Q182.40-6.78 184.99-7.90L184.99-7.90L184.99-7.90Q187.58-9.02 188.67-10.82ZM175.62-17.79L175.62-17.79L175.62-17.79Q180.16-17.79 182.78-20.61L182.78-20.61L182.78-20.61Q185.41-23.30 185.41-27.58L185.41-27.58L185.41-27.58Q185.41-29.06 184.86-29.86L184.86-29.86L184.86-29.86Q184.32-30.66 183.23-30.66L183.23-30.66L183.23-30.66Q182.14-30.66 181.22-30.24L181.22-30.24L181.22-30.24Q180.29-29.82 179.33-28.42L179.33-28.42L179.33-28.42Q176.96-25.22 175.62-17.79ZM197.82-6.40L197.82-6.40L197.82-6.40Q197.82-8.13 198.72-12.48L198.72-12.48L202.11-29.76L198.34-29.76L198.59-31.68L198.59-31.68Q206.27-33.98 213.70-39.62L213.70-39.62L216.77-39.62L215.23-32.64L220.22-32.64L219.65-29.76L214.72-29.76L211.46-12.48L211.46-12.48Q210.62-8.51 210.62-7.17L210.62-7.17L210.62-7.17Q210.62-4.10 213.31-3.46L213.31-3.46L213.31-3.46Q212.67-1.28 210.37 0L210.37 0L210.37 0Q208.06 1.28 204.80 1.28L204.80 1.28L204.80 1.28Q201.54 1.28 199.68-0.77L199.68-0.77L199.68-0.77Q197.82-2.82 197.82-6.40ZM240.26-7.23L240.26-7.23L240.26-7.23Q236.93-3.78 230.85-3.78L230.85-3.78L230.85-3.78Q223.23-3.78 221.63-9.34L221.63-9.34L221.63-9.34Q221.12-11.01 221.12-12.86L221.12-12.86L221.12-12.86Q221.12-14.72 221.50-16.64L221.50-16.64L224.51-32.64L237.50-33.92L233.98-15.30L233.98-15.30Q233.86-14.46 233.66-13.57L233.66-13.57L233.66-13.57Q233.47-12.67 233.47-11.74L233.47-11.74L233.47-11.74Q233.47-10.82 233.79-10.21L233.79-10.21L233.79-10.21Q234.11-9.60 234.56-9.22L234.56-9.22L234.56-9.22Q235.33-8.70 236.70-8.70L236.70-8.70L236.70-8.70Q238.08-8.70 239.26-10.37L239.26-10.37L239.26-10.37Q240.45-12.03 241.02-14.91L241.02-14.91L244.54-32.64L257.15-33.92L252.35-8.77L252.35-8.77Q249.98 3.52 245.12 8.38L245.12 8.38L245.12 8.38Q242.62 10.88 239.39 11.87L239.39 11.87L239.39 11.87Q236.16 12.86 232.00 12.86L232.00 12.86L232.00 12.86Q225.28 12.86 221.44 10.75L221.44 10.75L221.44 10.75Q217.60 8.64 217.60 5.12L217.60 5.12L217.60 5.12Q217.60 2.50 219.58 0.99L219.58 0.99L219.58 0.99Q221.57-0.51 224.64-0.51L224.64-0.51L224.64-0.51Q227.33-0.51 229.38 0.64L229.38 0.64L229.38 0.64Q230.59 1.34 231.17 2.24L231.17 2.24L231.17 2.24Q229.70 3.52 229.70 5.63L229.70 5.63L229.70 5.63Q229.70 8.45 232.26 8.45L232.26 8.45L232.26 8.45Q236.48 8.45 238.91-1.28L238.91-1.28L238.91-1.28Q239.62-4.16 240.26-7.23ZM299.39-1.09L299.39-1.09L299.39-1.09Q293.70 1.28 286.72 1.28L286.72 1.28L286.72 1.28Q280.58 1.28 276.42-1.92L276.42-1.92L276.42-1.92Q271.87-5.31 271.87-11.33L271.87-11.33L271.87-11.33Q271.87-20.22 282.56-22.72L282.56-22.72L282.56-22.72Q280.77-27.78 280.77-31.30L280.77-31.30L280.77-31.30Q280.77-34.82 282.11-37.09L282.11-37.09L282.11-37.09Q283.46-39.36 285.76-40.83L285.76-40.83L285.76-40.83Q290.11-43.52 297.41-43.52L297.41-43.52L297.41-43.52Q302.46-43.52 305.66-41.60L305.66-41.60L305.66-41.60Q308.93-39.62 308.93-36.67L308.93-36.67L308.93-36.67Q308.93-33.34 306.62-31.49L306.62-31.49L306.62-31.49Q304.58-29.76 301.18-29.76L301.18-29.76L301.18-29.76Q299.20-29.76 298.56-29.95L298.56-29.95L298.56-29.95Q298.82-31.36 298.82-33.66L298.82-33.66L298.82-33.66Q298.82-35.97 298.05-37.54L298.05-37.54L298.05-37.54Q297.28-39.10 296.00-39.10L296.00-39.10L296.00-39.10Q293.63-39.10 292.74-37.02L292.74-37.02L292.74-37.02Q291.84-34.94 291.84-31.90L291.84-31.90L291.84-31.90Q291.84-28.86 292.45-26.08L292.45-26.08L292.45-26.08Q293.06-23.30 294.21-20.61L294.21-20.61L294.21-20.61Q296.64-15.04 300.54-11.26L300.54-11.26L300.54-11.26Q301.57-13.76 301.70-17.66L301.70-17.66L301.70-17.66Q301.70-21.12 299.33-23.17L299.33-23.17L299.33-23.17Q300.22-24 301.95-24.51L301.95-24.51L301.95-24.51Q303.68-25.02 305.22-25.02L305.22-25.02L305.22-25.02Q308.61-25.02 310.21-22.98L310.21-22.98L310.21-22.98Q311.81-20.93 311.81-17.66L311.81-17.66L311.81-17.66Q311.81-11.84 307.65-7.04L307.65-7.04L307.65-7.04Q309.25-6.59 310.72-6.59L310.72-6.59L310.72-6.59Q313.92-6.59 314.94-7.42L314.94-7.42L314.94-7.42Q315.46-6.21 315.46-4.61L315.46-4.61L315.46-4.61Q315.46-1.41 313.38-0.06L313.38-0.06L313.38-0.06Q311.30 1.28 307.58 1.28L307.58 1.28L307.58 1.28Q303.87 1.28 299.39-1.09ZM284.74-17.86L284.74-17.86L284.74-17.86Q283.33-16.45 283.33-13.95L283.33-13.95L283.33-13.95Q283.33-11.46 283.90-9.89L283.90-9.89L283.90-9.89Q284.48-8.32 285.38-7.17L285.38-7.17L285.38-7.17Q287.42-4.67 290.11-4.67L290.11-4.67L290.11-4.67Q292.54-4.67 293.95-5.18L293.95-5.18L293.95-5.18Q288.58-10.24 284.74-17.86ZM366.14-13.25L366.14-13.25L366.14-13.25Q367.81-12.03 367.81-9.44L367.81-9.44L367.81-9.44Q367.81-6.85 366.69-5.02L366.69-5.02L366.69-5.02Q365.57-3.20 363.39-1.79L363.39-1.79L363.39-1.79Q358.72 1.22 350.56 1.22L350.56 1.22L350.56 1.22Q342.40 1.22 337.95-3.04L337.95-3.04L337.95-3.04Q333.50-7.30 333.50-14.85L333.50-14.85L333.50-14.85Q333.50-25.54 339.07-33.66L339.07-33.66L339.07-33.66Q343.30-39.68 350.85-42.24L350.85-42.24L350.85-42.24Q354.75-43.52 358.59-43.52L358.59-43.52L358.59-43.52Q362.43-43.52 364.80-43.01L364.80-43.01L364.80-43.01Q367.17-42.50 368.96-41.47L368.96-41.47L368.96-41.47Q372.86-39.23 372.86-35.65L372.86-35.65L372.86-35.65Q372.86-32.38 369.79-29.95L369.79-29.95L369.79-29.95Q366.98-27.78 364.67-27.78L364.67-27.78L364.67-27.78Q362.37-27.78 361.41-28.10L361.41-28.10L361.41-28.10Q361.66-30.40 361.66-31.90L361.66-31.90L361.66-31.90Q361.66-33.41 361.60-34.50L361.60-34.50L361.60-34.50Q361.54-35.58 361.22-36.61L361.22-36.61L361.22-36.61Q360.58-38.98 358.62-38.98L358.62-38.98L358.62-38.98Q356.67-38.98 354.72-37.15L354.72-37.15L354.72-37.15Q352.77-35.33 351.10-32.26L351.10-32.26L351.10-32.26Q347.33-25.28 347.33-17.02L347.33-17.02L347.33-17.02Q347.33-13.06 349.57-10.78L349.57-10.78L349.57-10.78Q351.81-8.51 356.61-8.51L356.61-8.51L356.61-8.51Q360.19-8.51 363.58-10.88L363.58-10.88L363.58-10.88Q365.06-11.90 366.14-13.25ZM385.44 0.64L385.44 0.64L385.44 0.64Q382.40 0 380.83-0.29L380.83-0.29L380.83-0.29Q379.26-0.58 377.44-0.58L377.44-0.58L377.44-0.58Q375.62-0.58 373.82 0.06L373.82 0.06L373.82 0.06Q372.86-0.51 372.26-1.66L372.26-1.66L372.26-1.66Q371.65-2.82 371.65-4.61L371.65-4.61L371.65-4.61Q371.65-8.38 375.49-11.26L375.49-11.26L391.74-22.98L391.74-22.98Q387.20-24.26 383.07-24.26L383.07-24.26L383.07-24.26Q378.94-24.26 377.47-21.44L377.47-21.44L377.47-21.44Q375.30-24 375.30-28.03L375.30-28.03L375.30-28.03Q375.30-30.72 377.25-32.48L377.25-32.48L377.25-32.48Q379.20-34.24 383.30-34.24L383.30-34.24L383.30-34.24Q385.60-34.24 387.68-33.95L387.68-33.95L387.68-33.95Q389.76-33.66 391.62-33.41L391.62-33.41L395.07-32.90L395.07-32.90Q396.74-32.64 398.43-32.64L398.43-32.64L398.43-32.64Q400.13-32.64 401.41-33.34L401.41-33.34L401.41-33.34Q403.07-31.81 403.07-29.70L403.07-29.70L403.07-29.70Q403.07-26.37 398.98-22.91L398.98-22.91L382.78-10.82L382.78-10.82Q387.78-9.34 390.34-9.34L390.34-9.34L390.34-9.34Q395.71-9.34 398.02-11.90L398.02-11.90L398.02-11.90Q399.81-9.86 399.81-6.30L399.81-6.30L399.81-6.30Q399.81-2.75 397.50-0.74L397.50-0.74L397.50-0.74Q395.20 1.28 391.04 1.28L391.04 1.28L391.04 1.28Q388.48 1.28 385.44 0.64ZM408.16-1.92L408.16-1.92L408.16-1.92Q406.66-3.58 405.98-6.21L405.98-6.21L405.98-6.21Q405.31-8.83 405.31-13.12L405.31-13.12L405.31-13.12Q405.31-17.41 406.78-21.31L406.78-21.31L406.78-21.31Q408.26-25.22 410.94-28.03L410.94-28.03L410.94-28.03Q416.45-33.92 425.54-33.92L425.54-33.92L425.54-33.92Q428.80-33.92 431.17-32.83L431.17-32.83L442.11-33.92L437.38-8.96L437.38-8.96Q437.18-8.19 437.18-6.78L437.18-6.78L437.18-6.78Q437.18-5.38 438.05-4.48L438.05-4.48L438.05-4.48Q438.91-3.58 440.19-3.46L440.19-3.46L440.19-3.46Q439.55-1.28 437.22 0L437.22 0L437.22 0Q434.88 1.28 432.26 1.28L432.26 1.28L432.26 1.28Q429.63 1.28 427.87 0.29L427.87 0.29L427.87 0.29Q426.11-0.70 425.60-2.37L425.60-2.37L425.60-2.37Q424.58-0.77 422.40 0.26L422.40 0.26L422.40 0.26Q420.22 1.28 417.31 1.28L417.31 1.28L417.31 1.28Q414.40 1.28 412.03 0.51L412.03 0.51L412.03 0.51Q409.66-0.26 408.16-1.92ZM421.66-27.90L421.66-27.90L421.66-27.90Q420.93-26.75 420.29-24.80L420.29-24.80L420.29-24.80Q419.65-22.85 418.59-17.63L418.59-17.63L418.59-17.63Q417.54-12.42 417.54-8.70L417.54-8.70L417.54-8.70Q417.54-4.99 418.11-3.90L418.11-3.90L418.11-3.90Q418.69-2.82 419.71-2.82L419.71-2.82L419.71-2.82Q421.76-2.82 423.26-4.77L423.26-4.77L423.26-4.77Q424.77-6.72 425.34-10.18L425.34-10.18L428.74-28.93L428.74-28.93Q427.39-30.08 425.82-30.08L425.82-30.08L425.82-30.08Q424.26-30.08 423.33-29.57L423.33-29.57L423.33-29.57Q422.40-29.06 421.66-27.90ZM465.60-17.98L465.60-17.98L465.60-17.98Q467.90-22.08 467.90-26.24L467.90-26.24L467.90-26.24Q467.90-28.99 465.92-28.99L465.92-28.99L465.92-28.99Q464.38-28.99 462.78-26.37L462.78-26.37L462.78-26.37Q461.12-23.74 460.61-20.35L460.61-20.35L457.28 0L444.03 1.28L450.56-32.64L461.12-33.92L459.97-27.46L459.97-27.46Q463.10-33.92 470.14-33.92L470.14-33.92L470.14-33.92Q473.86-33.92 475.87-32L475.87-32L475.87-32Q477.89-30.08 477.89-26.14L477.89-26.14L477.89-26.14Q477.89-22.21 475.30-19.71L475.30-19.71L475.30-19.71Q472.70-17.22 468.29-17.22L468.29-17.22L468.29-17.22Q466.37-17.22 465.60-17.98ZM492.86 1.28L492.86 1.28L492.86 1.28Q478.78 1.28 478.78-11.97L478.78-11.97L478.78-11.97Q478.78-21.38 483.97-27.46L483.97-27.46L483.97-27.46Q489.47-33.92 499.01-33.92L499.01-33.92L499.01-33.92Q505.92-33.92 509.44-30.72L509.44-30.72L509.44-30.72Q512.96-27.52 512.96-20.80L512.96-20.80L512.96-20.80Q512.96-10.56 507.46-4.61L507.46-4.61L507.46-4.61Q502.08 1.28 492.86 1.28ZM494.53-26.56L494.53-26.56L494.53-26.56Q493.76-24.83 493.15-22.24L493.15-22.24L493.15-22.24Q492.54-19.65 491.78-15.55L491.78-15.55L491.78-15.55Q491.01-11.46 491.01-6.40L491.01-6.40L491.01-6.40Q491.01-4.74 491.55-3.65L491.55-3.65L491.55-3.65Q492.10-2.56 493.57-2.56L493.57-2.56L493.57-2.56Q495.04-2.56 495.97-3.26L495.97-3.26L495.97-3.26Q496.90-3.97 497.60-5.63L497.60-5.63L497.60-5.63Q498.88-8.58 499.90-14.05L499.90-14.05L499.90-14.05Q500.93-19.52 501.02-21.89L501.02-21.89L501.02-21.89Q501.12-24.26 501.12-26.02L501.12-26.02L501.12-26.02Q501.12-27.78 500.61-28.93L500.61-28.93L500.61-28.93Q500.10-30.08 498.66-30.08L498.66-30.08L498.66-30.08Q497.22-30.08 496.26-29.18L496.26-29.18L496.26-29.18Q495.30-28.29 494.53-26.56ZM536.90-33.92L536.90-33.92L536.90-33.92Q539.20-33.92 540.99-33.41L540.99-33.41L540.99-33.41Q541.06-33.66 541.18-34.37L541.18-34.37L541.50-36.35L541.50-36.35Q541.76-37.63 542.14-39.74L542.14-39.74L543.17-44.80L555.90-46.08L548.80-8.96L548.80-8.96Q548.74-8.58 548.74-7.94L548.74-7.94L548.74-6.91L548.74-6.91Q548.74-5.50 549.44-4.45L549.44-4.45L549.44-4.45Q550.14-3.39 551.30-3.39L551.30-3.39L551.30-3.39Q550.02-0.38 546.11 0.90L546.11 0.90L546.11 0.90Q544.77 1.28 542.88 1.28L542.88 1.28L542.88 1.28Q540.99 1.28 539.26 0.29L539.26 0.29L539.26 0.29Q537.54-0.70 537.02-2.37L537.02-2.37L537.02-2.37Q536.00-0.70 533.95 0.29L533.95 0.29L533.95 0.29Q531.90 1.28 528.93 1.28L528.93 1.28L528.93 1.28Q525.95 1.28 523.49 0.51L523.49 0.51L523.49 0.51Q521.02-0.26 519.49-1.92L519.49-1.92L519.49-1.92Q516.67-5.18 516.67-12.61L516.67-12.61L516.67-12.61Q516.67-22.21 522.30-28.03L522.30-28.03L522.30-28.03Q527.94-33.92 536.90-33.92ZM536.45-30.08L536.45-30.08L536.45-30.08Q534.08-30.08 532.80-27.52L532.80-27.52L532.80-27.52Q531.52-24.96 530.21-18.62L530.21-18.62L530.21-18.62Q528.90-12.29 528.90-6.59L528.90-6.59L528.90-6.59Q528.90-2.69 531.20-2.69L531.20-2.69L531.20-2.69Q533.25-2.69 534.69-4.74L534.69-4.74L534.69-4.74Q536.13-6.78 536.70-10.18L536.70-10.18L540.16-28.93L540.16-28.93Q538.82-30.08 536.45-30.08ZM569.06 0.64L569.06 0.64L569.06 0.64Q566.02 0 564.45-0.29L564.45-0.29L564.45-0.29Q562.88-0.58 561.06-0.58L561.06-0.58L561.06-0.58Q559.23-0.58 557.44 0.06L557.44 0.06L557.44 0.06Q556.48-0.51 555.87-1.66L555.87-1.66L555.87-1.66Q555.26-2.82 555.26-4.61L555.26-4.61L555.26-4.61Q555.26-8.38 559.10-11.26L559.10-11.26L575.36-22.98L575.36-22.98Q570.82-24.26 566.69-24.26L566.69-24.26L566.69-24.26Q562.56-24.26 561.09-21.44L561.09-21.44L561.09-21.44Q558.91-24 558.91-28.03L558.91-28.03L558.91-28.03Q558.91-30.72 560.86-32.48L560.86-32.48L560.86-32.48Q562.82-34.24 566.91-34.24L566.91-34.24L566.91-34.24Q569.22-34.24 571.30-33.95L571.30-33.95L571.30-33.95Q573.38-33.66 575.23-33.41L575.23-33.41L578.69-32.90L578.69-32.90Q580.35-32.64 582.05-32.64L582.05-32.64L582.05-32.64Q583.74-32.64 585.02-33.34L585.02-33.34L585.02-33.34Q586.69-31.81 586.69-29.70L586.69-29.70L586.69-29.70Q586.69-26.37 582.59-22.91L582.59-22.91L566.40-10.82L566.40-10.82Q571.39-9.34 573.95-9.34L573.95-9.34L573.95-9.34Q579.33-9.34 581.63-11.90L581.63-11.90L581.63-11.90Q583.42-9.86 583.42-6.30L583.42-6.30L583.42-6.30Q583.42-2.75 581.12-0.74L581.12-0.74L581.12-0.74Q578.82 1.28 574.66 1.28L574.66 1.28L574.66 1.28Q572.10 1.28 569.06 0.64ZM604.35-3.52L604.35-3.52L604.35-3.52Q602.37 1.28 596.03 1.28L596.03 1.28L596.03 1.28Q592.77 1.28 590.72-0.96L590.72-0.96L590.72-0.96Q588.99-2.94 588.99-4.93L588.99-4.93L588.99-4.93Q588.99-10.11 591.36-20.22L591.36-20.22L593.73-32.64L606.72-33.92L602.82-13.70L602.82-13.70Q601.73-8.96 601.73-7.30L601.73-7.30L601.73-7.30Q601.73-3.65 604.35-3.52ZM594.88-41.54L594.88-41.54L594.88-41.54Q594.88-44.03 596.96-45.38L596.96-45.38L596.96-45.38Q599.04-46.72 602.05-46.72L602.05-46.72L602.05-46.72Q605.06-46.72 606.88-45.38L606.88-45.38L606.88-45.38Q608.70-44.03 608.70-41.54L608.70-41.54L608.70-41.54Q608.70-39.04 606.69-37.76L606.69-37.76L606.69-37.76Q604.67-36.48 601.66-36.48L601.66-36.48L601.66-36.48Q598.66-36.48 596.77-37.76L596.77-37.76L596.77-37.76Q594.88-39.04 594.88-41.54ZM635.71-10.82L635.71-10.82L635.71-10.82Q637.31-9.73 637.31-7.33L637.31-7.33L637.31-7.33Q637.31-4.93 636.10-3.39L636.10-3.39L636.10-3.39Q634.88-1.86 632.90-0.83L632.90-0.83L632.90-0.83Q628.80 1.28 624.38 1.28L624.38 1.28L624.38 1.28Q619.97 1.28 617.38 0.32L617.38 0.32L617.38 0.32Q614.78-0.64 613.06-2.43L613.06-2.43L613.06-2.43Q609.66-5.82 609.66-12.03L609.66-12.03L609.66-12.03Q609.66-21.70 614.91-27.58L614.91-27.58L614.91-27.58Q620.54-33.92 630.34-33.92L630.34-33.92L630.34-33.92Q636.42-33.92 639.42-31.36L639.42-31.36L639.42-31.36Q641.66-29.44 641.66-26.30L641.66-26.30L641.66-26.30Q641.66-15.04 622.21-15.04L622.21-15.04L622.21-15.04Q621.95-13.38 621.95-11.97L621.95-11.97L621.95-11.97Q621.95-9.02 623.26-7.90L623.26-7.90L623.26-7.90Q624.58-6.78 627.01-6.78L627.01-6.78L627.01-6.78Q629.44-6.78 632.03-7.90L632.03-7.90L632.03-7.90Q634.62-9.02 635.71-10.82ZM622.66-17.79L622.66-17.79L622.66-17.79Q627.20-17.79 629.82-20.61L629.82-20.61L629.82-20.61Q632.45-23.30 632.45-27.58L632.45-27.58L632.45-27.58Q632.45-29.06 631.90-29.86L631.90-29.86L631.90-29.86Q631.36-30.66 630.27-30.66L630.27-30.66L630.27-30.66Q629.18-30.66 628.26-30.24L628.26-30.24L628.26-30.24Q627.33-29.82 626.37-28.42L626.37-28.42L626.37-28.42Q624.00-25.22 622.66-17.79ZM634.94 7.62L634.94 7.62L634.94 7.62Q638.27 7.36 640.70 3.20L640.70 3.20L640.70 3.20Q642.56 0 643.78-5.89L643.78-5.89L648.96-32.64L661.82-33.92L656.38-5.89L656.38-5.89Q654.27 4.80 651.01 8.32L651.01 8.32L651.01 8.32Q649.28 10.24 647.04 10.88L647.04 10.88L647.04 10.88Q644.80 11.52 642.24 11.52L642.24 11.52L642.24 11.52Q636.86 11.52 634.94 7.62ZM649.98-41.54L649.98-41.54L649.98-41.54Q649.98-44.03 652.06-45.38L652.06-45.38L652.06-45.38Q654.14-46.72 657.15-46.72L657.15-46.72L657.15-46.72Q660.16-46.72 661.98-45.38L661.98-45.38L661.98-45.38Q663.81-44.03 663.81-41.54L663.81-41.54L663.81-41.54Q663.81-39.04 661.79-37.76L661.79-37.76L661.79-37.76Q659.78-36.48 656.77-36.48L656.77-36.48L656.77-36.48Q653.76-36.48 651.87-37.76L651.87-37.76L651.87-37.76Q649.98-39.04 649.98-41.54ZM690.05-10.82L690.05-10.82L690.05-10.82Q691.65-9.73 691.65-7.33L691.65-7.33L691.65-7.33Q691.65-4.93 690.43-3.39L690.43-3.39L690.43-3.39Q689.22-1.86 687.23-0.83L687.23-0.83L687.23-0.83Q683.14 1.28 678.72 1.28L678.72 1.28L678.72 1.28Q674.30 1.28 671.71 0.32L671.71 0.32L671.71 0.32Q669.12-0.64 667.39-2.43L667.39-2.43L667.39-2.43Q664.00-5.82 664.00-12.03L664.00-12.03L664.00-12.03Q664.00-21.70 669.25-27.58L669.25-27.58L669.25-27.58Q674.88-33.92 684.67-33.92L684.67-33.92L684.67-33.92Q690.75-33.92 693.76-31.36L693.76-31.36L693.76-31.36Q696.00-29.44 696.00-26.30L696.00-26.30L696.00-26.30Q696.00-15.04 676.54-15.04L676.54-15.04L676.54-15.04Q676.29-13.38 676.29-11.97L676.29-11.97L676.29-11.97Q676.29-9.02 677.60-7.90L677.60-7.90L677.60-7.90Q678.91-6.78 681.34-6.78L681.34-6.78L681.34-6.78Q683.78-6.78 686.37-7.90L686.37-7.90L686.37-7.90Q688.96-9.02 690.05-10.82ZM676.99-17.79L676.99-17.79L676.99-17.79Q681.54-17.79 684.16-20.61L684.16-20.61L684.16-20.61Q686.78-23.30 686.78-27.58L686.78-27.58L686.78-27.58Q686.78-29.06 686.24-29.86L686.24-29.86L686.24-29.86Q685.70-30.66 684.61-30.66L684.61-30.66L684.61-30.66Q683.52-30.66 682.59-30.24L682.59-30.24L682.59-30.24Q681.66-29.82 680.70-28.42L680.70-28.42L680.70-28.42Q678.34-25.22 676.99-17.79Z" fill="url(#editing-glowing-gradient)"></path></g></g><style>text {
  font-size: 64px;
  font-family: Arial Black;
  dominant-baseline: central;
  text-anchor: middle;
}</style></svg>