<svg width="1440.79619140625px" height="176.01754150390624px" xmlns="http://www.w3.org/2000/svg" viewBox="-470.398095703125 -13.008770751953122 1440.79619140625 176.01754150390624" style="background: rgba(0, 0, 0, 0);" preserveAspectRatio="xMidYMid"><defs><linearGradient id="editing-gradient-gradient" x1="0.7113091308703496" x2="0.28869086912965036" y1="0.046846106481674976" y2="0.953153893518325" gradientUnits="objectBoundingBox"><stop offset="0" stop-color="#00ff1c"></stop><stop offset="1" stop-color="#00ffff"></stop></linearGradient></defs><g><g transform="translate(-270.972797870636, 120.56999969482422)"><path d="M10.00 0L-1.27 0L16.46-64.68L36.95-64.68L41.45-27.73L59.68-64.68L76.83-64.68L78.60-16.27L78.60-16.27Q78.99-6.66 83.69-3.72L83.69-3.72L83.69-3.72Q82.61-1.76 79.48 0.10L79.48 0.10L79.48 0.10Q76.34 1.96 72.18 1.96L72.18 1.96L72.18 1.96Q68.01 1.96 65.56 0.78L65.56 0.78L65.56 0.78Q63.11-0.39 61.74-2.35L61.74-2.35L61.74-2.35Q59.29-5.88 59.29-12.64L59.29-12.64L59.29-42.92L39.98 0L27.83 0L20.97-44.00L10.00 0ZM92.17-2.94L92.17-2.94L92.17-2.94Q89.87-5.49 88.84-9.51L88.84-9.51L88.84-9.51Q87.81-13.52 87.81-20.09L87.81-20.09L87.81-20.09Q87.81-26.66 90.06-32.63L90.06-32.63L90.06-32.63Q92.32-38.61 96.43-42.92L96.43-42.92L96.43-42.92Q104.86-51.94 118.78-51.94L118.78-51.94L118.78-51.94Q123.77-51.94 127.40-50.27L127.40-50.27L144.16-51.94L136.91-13.72L136.91-13.72Q136.61-12.54 136.61-10.39L136.61-10.39L136.61-10.39Q136.61-8.23 137.94-6.86L137.94-6.86L137.94-6.86Q139.26-5.49 141.22-5.29L141.22-5.29L141.22-5.29Q140.24-1.96 136.66 0L136.66 0L136.66 0Q133.08 1.96 129.07 1.96L129.07 1.96L129.07 1.96Q125.05 1.96 122.35 0.44L122.35 0.44L122.35 0.44Q119.66-1.08 118.87-3.63L118.87-3.63L118.87-3.63Q117.31-1.18 113.97 0.39L113.97 0.39L113.97 0.39Q110.64 1.96 106.18 1.96L106.18 1.96L106.18 1.96Q101.72 1.96 98.10 0.78L98.10 0.78L98.10 0.78Q94.47-0.39 92.17-2.94ZM112.85-42.73L112.85-42.73L112.85-42.73Q111.72-40.96 110.74-37.98L110.74-37.98L110.74-37.98Q109.76-34.99 108.14-27.00L108.14-27.00L108.14-27.00Q106.53-19.01 106.53-13.33L106.53-13.33L106.53-13.33Q106.53-7.64 107.41-5.98L107.41-5.98L107.41-5.98Q108.29-4.31 109.86-4.31L109.86-4.31L109.86-4.31Q112.99-4.31 115.30-7.30L115.30-7.30L115.30-7.30Q117.60-10.29 118.48-15.58L118.48-15.58L123.68-44.30L123.68-44.30Q121.62-46.06 119.22-46.06L119.22-46.06L119.22-46.06Q116.82-46.06 115.40-45.28L115.40-45.28L115.40-45.28Q113.97-44.49 112.85-42.73ZM156.02-40.96L156.02-40.96L156.02-40.96Q159.35-45.67 164.40-48.80L164.40-48.80L164.40-48.80Q169.44-51.94 175.62-51.94L175.62-51.94L175.62-51.94Q181.79-51.94 184.73-49.98L184.73-49.98L203.94-51.94L197.27-14.31L197.27-14.31Q193.84 4.90 186.59 12.45L186.59 12.45L186.59 12.45Q179.63 19.60 166.11 19.60L166.11 19.60L166.11 19.60Q155.82 19.60 149.94 16.37L149.94 16.37L149.94 16.37Q144.06 13.13 144.06 7.74L144.06 7.74L144.06 7.74Q144.06 3.72 147.10 1.42L147.10 1.42L147.10 1.42Q150.14-0.88 154.84-0.88L154.84-0.88L154.84-0.88Q158.96-0.88 162.09 0.98L162.09 0.98L162.09 0.98Q163.95 1.96 164.84 3.33L164.84 3.33L164.84 3.33Q162.58 5.29 162.58 8.53L162.58 8.53L162.58 8.53Q162.58 12.74 166.50 12.74L166.50 12.74L166.50 12.74Q173.07 12.74 176.79-2.74L176.79-2.74L176.79-2.74Q177.87-6.96 178.75-11.17L178.75-11.17L178.75-11.17Q174.34-5.78 164.35-5.78L164.35-5.78L164.35-5.78Q157.39-5.78 153.37-9.11L153.37-9.11L153.37-9.11Q149.35-12.45 149.35-20.29L149.35-20.29L149.35-20.29Q149.35-25.19 151.02-30.72L151.02-30.72L151.02-30.72Q152.68-36.26 156.02-40.96ZM168.76-19.99L168.76-19.99L168.76-19.99Q168.76-13.33 172.19-13.33L172.19-13.33L172.19-13.33Q174.54-13.33 176.79-15.88L176.79-15.88L176.79-15.88Q178.56-17.93 179.24-20.97L179.24-20.97L184.24-46.16L184.24-46.16Q183.75-46.26 183.26-46.45L183.26-46.45L183.26-46.45Q182.28-46.84 181.01-46.84L181.01-46.84L181.01-46.84Q175.03-46.84 171.50-37.04L171.50-37.04L171.50-37.04Q168.76-29.40 168.76-19.99ZM249.21 1.96L249.21 1.96L249.21 1.96Q237.36 1.96 237.36-7.25L237.36-7.25L237.36-7.25Q237.45-9.80 238.24-14.11L238.24-14.11L240.00-23.13L240.00-23.13Q242.65-35.87 242.65-38.71L242.65-38.71L242.65-38.71Q242.65-44.39 239.32-44.39L239.32-44.39L239.32-44.39Q233.73-44.39 230.79-29.79L230.79-29.79L225.01 0L205.31 1.96L215.50-50.08L231.57-51.94L230.01-42.34L230.01-42.34Q234.61-51.94 248.72-51.94L248.72-51.94L248.72-51.94Q255.58-51.94 258.48-49.05L258.48-49.05L258.48-49.05Q261.37-46.16 261.37-39.69L261.37-39.69L261.37-39.69Q261.37-33.61 258.23-19.40L258.23-19.40L258.23-19.40Q256.76-13.03 256.76-10.63L256.76-10.63L256.76-10.63Q256.76-8.23 258.08-6.86L258.08-6.86L258.08-6.86Q259.41-5.49 261.37-5.29L261.37-5.29L261.37-5.29Q260.39-1.96 257.00 0L257.00 0L257.00 0Q253.62 1.96 249.21 1.96ZM273.47-2.94L273.47-2.94L273.47-2.94Q271.17-5.49 270.14-9.51L270.14-9.51L270.14-9.51Q269.11-13.52 269.11-20.09L269.11-20.09L269.11-20.09Q269.11-26.66 271.36-32.63L271.36-32.63L271.36-32.63Q273.62-38.61 277.73-42.92L277.73-42.92L277.73-42.92Q286.16-51.94 300.08-51.94L300.08-51.94L300.08-51.94Q305.07-51.94 308.70-50.27L308.70-50.27L325.46-51.94L318.21-13.72L318.21-13.72Q317.91-12.54 317.91-10.39L317.91-10.39L317.91-10.39Q317.91-8.23 319.24-6.86L319.24-6.86L319.24-6.86Q320.56-5.49 322.52-5.29L322.52-5.29L322.52-5.29Q321.54-1.96 317.96 0L317.96 0L317.96 0Q314.38 1.96 310.37 1.96L310.37 1.96L310.37 1.96Q306.35 1.96 303.65 0.44L303.65 0.44L303.65 0.44Q300.96-1.08 300.17-3.63L300.17-3.63L300.17-3.63Q298.61-1.18 295.27 0.39L295.27 0.39L295.27 0.39Q291.94 1.96 287.48 1.96L287.48 1.96L287.48 1.96Q283.02 1.96 279.40 0.78L279.40 0.78L279.40 0.78Q275.77-0.39 273.47-2.94ZM294.15-42.73L294.15-42.73L294.15-42.73Q293.02-40.96 292.04-37.98L292.04-37.98L292.04-37.98Q291.06-34.99 289.44-27.00L289.44-27.00L289.44-27.00Q287.83-19.01 287.83-13.33L287.83-13.33L287.83-13.33Q287.83-7.64 288.71-5.98L288.71-5.98L288.71-5.98Q289.59-4.31 291.16-4.31L291.16-4.31L291.16-4.31Q294.29-4.31 296.60-7.30L296.60-7.30L296.60-7.30Q298.90-10.29 299.78-15.58L299.78-15.58L304.98-44.30L304.98-44.30Q302.92-46.06 300.52-46.06L300.52-46.06L300.52-46.06Q298.12-46.06 296.70-45.28L296.70-45.28L296.70-45.28Q295.27-44.49 294.15-42.73ZM378.48-40.77L378.48-40.77L378.48-40.77Q378.48-36.65 375.05-34.10L375.05-34.10L375.05-34.10Q371.62-31.56 366.03-31.56L366.03-31.56L366.03-31.56Q363.68-31.56 362.31-32.24L362.31-32.24L362.31-32.24Q363.38-34.79 363.73-37.98L363.73-37.98L363.73-37.98Q364.07-41.16 364.07-42.04L364.07-42.04L364.07-42.04Q364.07-46.16 361.23-46.16L361.23-46.16L361.23-46.16Q359.27-46.16 357.06-43.71L357.06-43.71L357.06-43.71Q354.86-41.26 353.00-37.44L353.00-37.44L353.00-37.44Q348.88-28.62 348.88-19.70L348.88-19.70L348.88-19.70Q348.88-14.80 350.74-12.59L350.74-12.59L350.74-12.59Q352.60-10.39 356.72-10.39L356.72-10.39L356.72-10.39Q362.40-10.39 366.91-15.09L366.91-15.09L366.91-15.09Q368.19-16.56 368.87-18.23L368.87-18.23L368.87-18.23Q372.60-16.27 372.60-10.88L372.60-10.88L372.60-10.88Q372.60-5.39 366.52-1.76L366.52-1.76L366.52-1.76Q360.25 1.96 350.25 1.96L350.25 1.96L350.25 1.96Q330.36 1.96 330.36-19.11L330.36-19.11L330.36-19.11Q330.36-34.50 339.08-43.32L339.08-43.32L339.08-43.32Q347.51-51.94 362.99-51.94L362.99-51.94L362.99-51.94Q378.48-51.94 378.48-40.77ZM404.64-5.39L404.64-5.39L404.64-5.39Q401.60 1.96 391.90 1.96L391.90 1.96L391.90 1.96Q386.90 1.96 383.77-1.47L383.77-1.47L383.77-1.47Q381.12-4.51 381.12-7.55L381.12-7.55L381.12-7.55Q381.12-15.48 384.75-30.97L384.75-30.97L388.37-49.98L408.27-51.94L402.29-20.97L402.29-20.97Q400.62-13.72 400.62-11.17L400.62-11.17L400.62-11.17Q400.62-5.59 404.64-5.39ZM390.14-63.60L390.14-63.60L390.14-63.60Q390.14-67.42 393.32-69.48L393.32-69.48L393.32-69.48Q396.51-71.54 401.11-71.54L401.11-71.54L401.11-71.54Q405.72-71.54 408.51-69.48L408.51-69.48L408.51-69.48Q411.31-67.42 411.31-63.60L411.31-63.60L411.31-63.60Q411.31-59.78 408.22-57.82L408.22-57.82L408.22-57.82Q405.13-55.86 400.53-55.86L400.53-55.86L400.53-55.86Q395.92-55.86 393.03-57.82L393.03-57.82L393.03-57.82Q390.14-59.78 390.14-63.60ZM456.68-5.39L456.68-5.39L456.68-5.39Q453.64 1.96 443.94 1.96L443.94 1.96L443.94 1.96Q438.94 1.96 435.81-1.47L435.81-1.47L435.81-1.47Q433.16-4.51 433.16-7.55L433.16-7.55L433.16-7.55Q433.16-15.48 436.79-30.97L436.79-30.97L440.41-49.98L460.31-51.94L454.33-20.97L454.33-20.97Q452.66-13.72 452.66-11.17L452.66-11.17L452.66-11.17Q452.66-5.59 456.68-5.39ZM442.18-63.60L442.18-63.60L442.18-63.60Q442.18-67.42 445.36-69.48L445.36-69.48L445.36-69.48Q448.55-71.54 453.15-71.54L453.15-71.54L453.15-71.54Q457.76-71.54 460.55-69.48L460.55-69.48L460.55-69.48Q463.34-67.42 463.34-63.60L463.34-63.60L463.34-63.60Q463.34-59.78 460.26-57.82L460.26-57.82L460.26-57.82Q457.17-55.86 452.56-55.86L452.56-55.86L452.56-55.86Q447.96-55.86 445.07-57.82L445.07-57.82L445.07-57.82Q442.18-59.78 442.18-63.60ZM536.35-20.29L536.35-20.29L536.35-20.29Q538.90-18.42 538.90-14.46L538.90-14.46L538.90-14.46Q538.90-10.49 537.19-7.69L537.19-7.69L537.19-7.69Q535.47-4.90 532.14-2.74L532.14-2.74L532.14-2.74Q524.99 1.86 512.49 1.86L512.49 1.86L512.49 1.86Q500.00 1.86 493.19-4.66L493.19-4.66L493.19-4.66Q486.37-11.17 486.37-22.74L486.37-22.74L486.37-22.74Q486.37-39.10 494.90-51.55L494.90-51.55L494.90-51.55Q501.37-60.76 512.93-64.68L512.93-64.68L512.93-64.68Q518.91-66.64 524.79-66.64L524.79-66.64L524.79-66.64Q530.67-66.64 534.30-65.86L534.30-65.86L534.30-65.86Q537.92-65.07 540.67-63.50L540.67-63.50L540.67-63.50Q546.64-60.07 546.64-54.59L546.64-54.59L546.64-54.59Q546.64-49.59 541.94-45.86L541.94-45.86L541.94-45.86Q537.63-42.53 534.10-42.53L534.10-42.53L534.10-42.53Q530.57-42.53 529.10-43.02L529.10-43.02L529.10-43.02Q529.49-46.55 529.49-48.85L529.49-48.85L529.49-48.85Q529.49-51.16 529.40-52.82L529.40-52.82L529.40-52.82Q529.30-54.49 528.81-56.06L528.81-56.06L528.81-56.06Q527.83-59.68 524.84-59.68L524.84-59.68L524.84-59.68Q521.85-59.68 518.86-56.89L518.86-56.89L518.86-56.89Q515.87-54.10 513.32-49.39L513.32-49.39L513.32-49.39Q507.54-38.71 507.54-26.07L507.54-26.07L507.54-26.07Q507.54-19.99 510.97-16.51L510.97-16.51L510.97-16.51Q514.40-13.03 521.75-13.03L521.75-13.03L521.75-13.03Q527.24-13.03 532.43-16.66L532.43-16.66L532.43-16.66Q534.69-18.23 536.35-20.29ZM565.90 0.98L565.90 0.98L565.90 0.98Q561.25 0 558.85-0.44L558.85-0.44L558.85-0.44Q556.44-0.88 553.65-0.88L553.65-0.88L553.65-0.88Q550.86-0.88 548.11 0.10L548.11 0.10L548.11 0.10Q546.64-0.78 545.71-2.55L545.71-2.55L545.71-2.55Q544.78-4.31 544.78-7.06L544.78-7.06L544.78-7.06Q544.78-12.84 550.66-17.25L550.66-17.25L575.55-35.18L575.55-35.18Q568.60-37.14 562.27-37.14L562.27-37.14L562.27-37.14Q555.95-37.14 553.70-32.83L553.70-32.83L553.70-32.83Q550.37-36.75 550.37-42.92L550.37-42.92L550.37-42.92Q550.37-47.04 553.36-49.73L553.36-49.73L553.36-49.73Q556.35-52.43 562.62-52.43L562.62-52.43L562.62-52.43Q566.15-52.43 569.33-51.99L569.33-51.99L569.33-51.99Q572.52-51.55 575.36-51.16L575.36-51.16L580.65-50.37L580.65-50.37Q583.20-49.98 585.79-49.98L585.79-49.98L585.79-49.98Q588.39-49.98 590.35-51.06L590.35-51.06L590.35-51.06Q592.90-48.71 592.90-45.47L592.90-45.47L592.90-45.47Q592.90-40.38 586.63-35.08L586.63-35.08L561.83-16.56L561.83-16.56Q569.48-14.31 573.40-14.31L573.40-14.31L573.40-14.31Q581.63-14.31 585.16-18.23L585.16-18.23L585.16-18.23Q587.90-15.09 587.90-9.65L587.90-9.65L587.90-9.65Q587.90-4.21 584.37-1.13L584.37-1.13L584.37-1.13Q580.85 1.96 574.48 1.96L574.48 1.96L574.48 1.96Q570.56 1.96 565.90 0.98ZM600.69-2.94L600.69-2.94L600.69-2.94Q598.39-5.49 597.36-9.51L597.36-9.51L597.36-9.51Q596.33-13.52 596.33-20.09L596.33-20.09L596.33-20.09Q596.33-26.66 598.58-32.63L598.58-32.63L598.58-32.63Q600.84-38.61 604.95-42.92L604.95-42.92L604.95-42.92Q613.38-51.94 627.30-51.94L627.30-51.94L627.30-51.94Q632.30-51.94 635.92-50.27L635.92-50.27L652.68-51.94L645.43-13.72L645.43-13.72Q645.13-12.54 645.13-10.39L645.13-10.39L645.13-10.39Q645.13-8.23 646.46-6.86L646.46-6.86L646.46-6.86Q647.78-5.49 649.74-5.29L649.74-5.29L649.74-5.29Q648.76-1.96 645.18 0L645.18 0L645.18 0Q641.61 1.96 637.59 1.96L637.59 1.96L637.59 1.96Q633.57 1.96 630.88 0.44L630.88 0.44L630.88 0.44Q628.18-1.08 627.40-3.63L627.40-3.63L627.40-3.63Q625.83-1.18 622.50 0.39L622.50 0.39L622.50 0.39Q619.16 1.96 614.71 1.96L614.71 1.96L614.71 1.96Q610.25 1.96 606.62 0.78L606.62 0.78L606.62 0.78Q602.99-0.39 600.69-2.94ZM621.37-42.73L621.37-42.73L621.37-42.73Q620.24-40.96 619.26-37.98L619.26-37.98L619.26-37.98Q618.28-34.99 616.67-27.00L616.67-27.00L616.67-27.00Q615.05-19.01 615.05-13.33L615.05-13.33L615.05-13.33Q615.05-7.64 615.93-5.98L615.93-5.98L615.93-5.98Q616.81-4.31 618.38-4.31L618.38-4.31L618.38-4.31Q621.52-4.31 623.82-7.30L623.82-7.30L623.82-7.30Q626.12-10.29 627.00-15.58L627.00-15.58L632.20-44.30L632.20-44.30Q630.14-46.06 627.74-46.06L627.74-46.06L627.74-46.06Q625.34-46.06 623.92-45.28L623.92-45.28L623.92-45.28Q622.50-44.49 621.37-42.73ZM688.65-27.54L688.65-27.54L688.65-27.54Q692.17-33.81 692.17-40.18L692.17-40.18L692.17-40.18Q692.17-44.39 689.14-44.39L689.14-44.39L689.14-44.39Q686.78-44.39 684.33-40.38L684.33-40.38L684.33-40.38Q681.79-36.36 681.00-31.16L681.00-31.16L675.91 0L655.62 1.96L665.62-49.98L681.79-51.94L680.02-42.04L680.02-42.04Q684.82-51.94 695.60-51.94L695.60-51.94L695.60-51.94Q701.29-51.94 704.38-49L704.38-49L704.38-49Q707.46-46.06 707.46-40.03L707.46-40.03L707.46-40.03Q707.46-34.01 703.49-30.18L703.49-30.18L703.49-30.18Q699.52-26.36 692.76-26.36L692.76-26.36L692.76-26.36Q689.82-26.36 688.65-27.54ZM730.39 1.96L730.39 1.96L730.39 1.96Q708.83 1.96 708.83-18.33L708.83-18.33L708.83-18.33Q708.83-32.73 716.77-42.04L716.77-42.04L716.77-42.04Q725.20-51.94 739.80-51.94L739.80-51.94L739.80-51.94Q750.39-51.94 755.78-47.04L755.78-47.04L755.78-47.04Q761.17-42.14 761.17-31.85L761.17-31.85L761.17-31.85Q761.17-16.17 752.74-7.06L752.74-7.06L752.74-7.06Q744.51 1.96 730.39 1.96ZM732.94-40.67L732.94-40.67L732.94-40.67Q731.77-38.02 730.84-34.05L730.84-34.05L730.84-34.05Q729.90-30.09 728.73-23.81L728.73-23.81L728.73-23.81Q727.55-17.54 727.55-9.80L727.55-9.80L727.55-9.80Q727.55-7.25 728.38-5.59L728.38-5.59L728.38-5.59Q729.22-3.92 731.47-3.92L731.47-3.92L731.47-3.92Q733.73-3.92 735.15-5.00L735.15-5.00L735.15-5.00Q736.57-6.08 737.65-8.62L737.65-8.62L737.65-8.62Q739.61-13.13 741.17-21.51L741.17-21.51L741.17-21.51Q742.74-29.89 742.89-33.52L742.89-33.52L742.89-33.52Q743.04-37.14 743.04-39.84L743.04-39.84L743.04-39.84Q743.04-42.53 742.25-44.30L742.25-44.30L742.25-44.30Q741.47-46.06 739.26-46.06L739.26-46.06L739.26-46.06Q737.06-46.06 735.59-44.69L735.59-44.69L735.59-44.69Q734.12-43.32 732.94-40.67ZM797.82-51.94L797.82-51.94L797.82-51.94Q801.35-51.94 804.09-51.16L804.09-51.16L804.09-51.16Q804.19-51.55 804.38-52.63L804.38-52.63L804.87-55.66L804.87-55.66Q805.27-57.62 805.85-60.86L805.85-60.86L807.42-68.60L826.92-70.56L816.05-13.72L816.05-13.72Q815.95-13.13 815.95-12.15L815.95-12.15L815.95-10.58L815.95-10.58Q815.95-8.43 817.03-6.81L817.03-6.81L817.03-6.81Q818.10-5.19 819.87-5.19L819.87-5.19L819.87-5.19Q817.91-0.59 811.93 1.37L811.93 1.37L811.93 1.37Q809.87 1.96 806.98 1.96L806.98 1.96L806.98 1.96Q804.09 1.96 801.44 0.44L801.44 0.44L801.44 0.44Q798.80-1.08 798.01-3.63L798.01-3.63L798.01-3.63Q796.45-1.08 793.31 0.44L793.31 0.44L793.31 0.44Q790.17 1.96 785.62 1.96L785.62 1.96L785.62 1.96Q781.06 1.96 777.29 0.78L777.29 0.78L777.29 0.78Q773.51-0.39 771.16-2.94L771.16-2.94L771.16-2.94Q766.85-7.94 766.85-19.31L766.85-19.31L766.85-19.31Q766.85-34.01 775.47-42.92L775.47-42.92L775.47-42.92Q784.10-51.94 797.82-51.94ZM797.13-46.06L797.13-46.06L797.13-46.06Q793.51-46.06 791.55-42.14L791.55-42.14L791.55-42.14Q789.59-38.22 787.58-28.52L787.58-28.52L787.58-28.52Q785.57-18.82 785.57-10.09L785.57-10.09L785.57-10.09Q785.57-4.12 789.10-4.12L789.10-4.12L789.10-4.12Q792.23-4.12 794.44-7.25L794.44-7.25L794.44-7.25Q796.64-10.39 797.52-15.58L797.52-15.58L802.82-44.30L802.82-44.30Q800.76-46.06 797.13-46.06ZM847.06 0.98L847.06 0.98L847.06 0.98Q842.41 0 840.01-0.44L840.01-0.44L840.01-0.44Q837.61-0.88 834.81-0.88L834.81-0.88L834.81-0.88Q832.02-0.88 829.28 0.10L829.28 0.10L829.28 0.10Q827.81-0.78 826.88-2.55L826.88-2.55L826.88-2.55Q825.94-4.31 825.94-7.06L825.94-7.06L825.94-7.06Q825.94-12.84 831.82-17.25L831.82-17.25L856.72-35.18L856.72-35.18Q849.76-37.14 843.44-37.14L843.44-37.14L843.44-37.14Q837.12-37.14 834.86-32.83L834.86-32.83L834.86-32.83Q831.53-36.75 831.53-42.92L831.53-42.92L831.53-42.92Q831.53-47.04 834.52-49.73L834.52-49.73L834.52-49.73Q837.51-52.43 843.78-52.43L843.78-52.43L843.78-52.43Q847.31-52.43 850.49-51.99L850.49-51.99L850.49-51.99Q853.68-51.55 856.52-51.16L856.52-51.16L861.81-50.37L861.81-50.37Q864.36-49.98 866.96-49.98L866.96-49.98L866.96-49.98Q869.55-49.98 871.51-51.06L871.51-51.06L871.51-51.06Q874.06-48.71 874.06-45.47L874.06-45.47L874.06-45.47Q874.06-40.38 867.79-35.08L867.79-35.08L843.00-16.56L843.00-16.56Q850.64-14.31 854.56-14.31L854.56-14.31L854.56-14.31Q862.79-14.31 866.32-18.23L866.32-18.23L866.32-18.23Q869.06-15.09 869.06-9.65L869.06-9.65L869.06-9.65Q869.06-4.21 865.54-1.13L865.54-1.13L865.54-1.13Q862.01 1.96 855.64 1.96L855.64 1.96L855.64 1.96Q851.72 1.96 847.06 0.98ZM901.11-5.39L901.11-5.39L901.11-5.39Q898.07 1.96 888.37 1.96L888.37 1.96L888.37 1.96Q883.37 1.96 880.24-1.47L880.24-1.47L880.24-1.47Q877.59-4.51 877.59-7.55L877.59-7.55L877.59-7.55Q877.59-15.48 881.22-30.97L881.22-30.97L884.84-49.98L904.74-51.94L898.76-20.97L898.76-20.97Q897.09-13.72 897.09-11.17L897.09-11.17L897.09-11.17Q897.09-5.59 901.11-5.39ZM886.61-63.60L886.61-63.60L886.61-63.60Q886.61-67.42 889.79-69.48L889.79-69.48L889.79-69.48Q892.98-71.54 897.58-71.54L897.58-71.54L897.58-71.54Q902.19-71.54 904.98-69.48L904.98-69.48L904.98-69.48Q907.77-67.42 907.77-63.60L907.77-63.60L907.77-63.60Q907.77-59.78 904.69-57.82L904.69-57.82L904.69-57.82Q901.60-55.86 896.99-55.86L896.99-55.86L896.99-55.86Q892.39-55.86 889.50-57.82L889.50-57.82L889.50-57.82Q886.61-59.78 886.61-63.60ZM949.13-16.56L949.13-16.56L949.13-16.56Q951.58-14.90 951.58-11.22L951.58-11.22L951.58-11.22Q951.58-7.55 949.72-5.19L949.72-5.19L949.72-5.19Q947.86-2.84 944.82-1.27L944.82-1.27L944.82-1.27Q938.55 1.96 931.78 1.96L931.78 1.96L931.78 1.96Q925.02 1.96 921.05 0.49L921.05 0.49L921.05 0.49Q917.08-0.98 914.44-3.72L914.44-3.72L914.44-3.72Q909.24-8.92 909.24-18.42L909.24-18.42L909.24-18.42Q909.24-33.22 917.28-42.24L917.28-42.24L917.28-42.24Q925.90-51.94 940.90-51.94L940.90-51.94L940.90-51.94Q950.21-51.94 954.81-48.02L954.81-48.02L954.81-48.02Q958.24-45.08 958.24-40.28L958.24-40.28L958.24-40.28Q958.24-23.03 928.45-23.03L928.45-23.03L928.45-23.03Q928.06-20.48 928.06-18.33L928.06-18.33L928.06-18.33Q928.06-13.82 930.07-12.10L930.07-12.10L930.07-12.10Q932.08-10.39 935.80-10.39L935.80-10.39L935.80-10.39Q939.53-10.39 943.50-12.10L943.50-12.10L943.50-12.10Q947.46-13.82 949.13-16.56ZM929.14-27.24L929.14-27.24L929.14-27.24Q936.10-27.24 940.11-31.56L940.11-31.56L940.11-31.56Q944.13-35.67 944.13-42.24L944.13-42.24L944.13-42.24Q944.13-44.49 943.30-45.72L943.30-45.72L943.30-45.72Q942.47-46.94 940.80-46.94L940.80-46.94L940.80-46.94Q939.13-46.94 937.71-46.30L937.71-46.30L937.71-46.30Q936.29-45.67 934.82-43.51L934.82-43.51L934.82-43.51Q931.20-38.61 929.14-27.24ZM947.95 11.66L947.95 11.66L947.95 11.66Q953.05 11.27 956.77 4.90L956.77 4.90L956.77 4.90Q959.62 0 961.48-9.02L961.48-9.02L969.42-49.98L989.11-51.94L980.78-9.02L980.78-9.02Q977.55 7.35 972.55 12.74L972.55 12.74L972.55 12.74Q969.91 15.68 966.48 16.66L966.48 16.66L966.48 16.66Q963.05 17.64 959.13 17.64L959.13 17.64L959.13 17.64Q950.89 17.64 947.95 11.66ZM970.98-63.60L970.98-63.60L970.98-63.60Q970.98-67.42 974.17-69.48L974.17-69.48L974.17-69.48Q977.35-71.54 981.96-71.54L981.96-71.54L981.96-71.54Q986.57-71.54 989.36-69.48L989.36-69.48L989.36-69.48Q992.15-67.42 992.15-63.60L992.15-63.60L992.15-63.60Q992.15-59.78 989.07-57.82L989.07-57.82L989.07-57.82Q985.98-55.86 981.37-55.86L981.37-55.86L981.37-55.86Q976.77-55.86 973.88-57.82L973.88-57.82L973.88-57.82Q970.98-59.78 970.98-63.60ZM1032.33-16.56L1032.33-16.56L1032.33-16.56Q1034.78-14.90 1034.78-11.22L1034.78-11.22L1034.78-11.22Q1034.78-7.55 1032.92-5.19L1032.92-5.19L1032.92-5.19Q1031.06-2.84 1028.02-1.27L1028.02-1.27L1028.02-1.27Q1021.75 1.96 1014.99 1.96L1014.99 1.96L1014.99 1.96Q1008.22 1.96 1004.26 0.49L1004.26 0.49L1004.26 0.49Q1000.29-0.98 997.64-3.72L997.64-3.72L997.64-3.72Q992.45-8.92 992.45-18.42L992.45-18.42L992.45-18.42Q992.45-33.22 1000.48-42.24L1000.48-42.24L1000.48-42.24Q1009.11-51.94 1024.10-51.94L1024.10-51.94L1024.10-51.94Q1033.41-51.94 1038.02-48.02L1038.02-48.02L1038.02-48.02Q1041.45-45.08 1041.45-40.28L1041.45-40.28L1041.45-40.28Q1041.45-23.03 1011.65-23.03L1011.65-23.03L1011.65-23.03Q1011.26-20.48 1011.26-18.33L1011.26-18.33L1011.26-18.33Q1011.26-13.82 1013.27-12.10L1013.27-12.10L1013.27-12.10Q1015.28-10.39 1019.00-10.39L1019.00-10.39L1019.00-10.39Q1022.73-10.39 1026.70-12.10L1026.70-12.10L1026.70-12.10Q1030.67-13.82 1032.33-16.56ZM1012.34-27.24L1012.34-27.24L1012.34-27.24Q1019.30-27.24 1023.32-31.56L1023.32-31.56L1023.32-31.56Q1027.33-35.67 1027.33-42.24L1027.33-42.24L1027.33-42.24Q1027.33-44.49 1026.50-45.72L1026.50-45.72L1026.50-45.72Q1025.67-46.94 1024.00-46.94L1024.00-46.94L1024.00-46.94Q1022.34-46.94 1020.92-46.30L1020.92-46.30L1020.92-46.30Q1019.49-45.67 1018.02-43.51L1018.02-43.51L1018.02-43.51Q1014.40-38.61 1012.34-27.24Z" fill="url(#editing-gradient-gradient)"></path></g></g><style>text {
  font-size: 64px;
  font-family: Arial Black;
  dominant-baseline: central;
  text-anchor: middle;
}</style></svg>